<svg xmlns="http://www.w3.org/2000/svg" viewBox="0 0 1000 1000" width="1000" height="1000" font-family="PingFang TC, Hiragino Sans GB, sans-serif">
<rect width="1000" height="1000" fill="#FFFFFF"/>
<rect x="300" y="60" width="320" height="700" rx="22" fill="#F5F2EC" stroke="#D8D2C9" stroke-width="3"/>
<rect x="300" y="60" width="320" height="90" rx="22" fill="#E9EEEF" stroke="#A6B7BA" stroke-width="3"/>
<text x="460.0" y="118" font-size="34" fill="#2A2623" font-weight="700" text-anchor="middle">領域專家</text>
<rect x="655" y="60" width="320" height="700" rx="22" fill="#F5F2EC" stroke="#D8D2C9" stroke-width="3"/>
<rect x="655" y="60" width="320" height="90" rx="22" fill="#E9EEEF" stroke="#A6B7BA" stroke-width="3"/>
<text x="815.0" y="118" font-size="34" fill="#2A2623" font-weight="700" text-anchor="middle">RD</text>
<circle cx="62" cy="260" r="24" fill="#BE8979"/><text x="62" y="269" font-size="24" fill="#FFFFFF" font-weight="700" text-anchor="middle">1</text>
<text x="100" y="271" font-size="30" fill="#2A2623" font-weight="700" text-anchor="start">驗收標準</text>
<text x="460.0" y="252" font-size="28" fill="#2A2623" font-weight="600" text-anchor="middle">知道好的結果</text>
<text x="460.0" y="292" font-size="28" fill="#2A2623" font-weight="600" text-anchor="middle">長什麼樣子</text>
<text x="815.0" y="252" font-size="28" fill="#2A2623" font-weight="600" text-anchor="middle">返工減少</text>
<text x="815.0" y="292" font-size="28" fill="#2A2623" font-weight="600" text-anchor="middle">看得見</text>
<line x1="330" y1="360" x2="590" y2="360" stroke="#D8D2C9" stroke-width="2" stroke-dasharray="6 6"/>
<line x1="685" y1="360" x2="945" y2="360" stroke="#D8D2C9" stroke-width="2" stroke-dasharray="6 6"/>
<circle cx="62" cy="455" r="24" fill="#BE8979"/><text x="62" y="464" font-size="24" fill="#FFFFFF" font-weight="700" text-anchor="middle">2</text>
<text x="100" y="466" font-size="30" fill="#2A2623" font-weight="700" text-anchor="start">外部檢查</text>
<text x="460.0" y="447" font-size="28" fill="#2A2623" font-weight="600" text-anchor="middle">自己試用</text>
<text x="460.0" y="487" font-size="28" fill="#2A2623" font-weight="600" text-anchor="middle">就是檢查</text>
<text x="815.0" y="447" font-size="28" fill="#2A2623" font-weight="600" text-anchor="middle">測試</text>
<text x="815.0" y="487" font-size="28" fill="#2A2623" font-weight="600" text-anchor="middle">就是檢查</text>
<line x1="330" y1="555" x2="590" y2="555" stroke="#D8D2C9" stroke-width="2" stroke-dasharray="6 6"/>
<line x1="685" y1="555" x2="945" y2="555" stroke="#D8D2C9" stroke-width="2" stroke-dasharray="6 6"/>
<circle cx="62" cy="650" r="24" fill="#BE8979"/><text x="62" y="659" font-size="24" fill="#FFFFFF" font-weight="700" text-anchor="middle">3</text>
<text x="100" y="661" font-size="30" fill="#2A2623" font-weight="700" text-anchor="start">承擔判斷</text>
<text x="460.0" y="642" font-size="28" fill="#2A2623" font-weight="600" text-anchor="middle">為自己的工具</text>
<text x="460.0" y="682" font-size="28" fill="#2A2623" font-weight="600" text-anchor="middle">負責</text>
<text x="815.0" y="642" font-size="28" fill="#2A2623" font-weight="600" text-anchor="middle">為自己的程式碼</text>
<text x="815.0" y="682" font-size="28" fill="#2A2623" font-weight="600" text-anchor="middle">負責</text>
<rect x="120" y="810" width="760" height="110" rx="22" fill="#F6EAE5" stroke="#BE8979" stroke-width="3"/>
<text x="500" y="880" font-size="36" fill="#BE8979" font-weight="700" text-anchor="middle">做的人同時是檢查與負責的人</text>
</svg>